. 
  
http://www.torrenting.com/        :     Greatest Movie Tracker on The Net!!!
 
http://www.Torrenting.com          :     Once & For all ;)


               www . Torrenting . Com 

(((((((((((((= Enjoy No RAR releases =))))))))))))))))))))


...................................NFO:....................................

.[img]http://img109.imageshack.us/img109/6531/glenng.jpg[/img]

[color=blue][size=5][b]Glenn.The.Flying.Robot.2010.BDRip.XVID.AC3.HQ.Hive-CM8[/b][/size][/color]


[b]Thx Hive

CM8 Doing It Right The First Time :D


Source Bluray

Video: 720x320 @bitrate 1800 2pass
Audio: English DTS to AC3 5.1 @448
Sample: yes included[/b]


[url]http://www.imdb.com/title/tt0934446/[/url]


General
Complete name                    : Glenn.the.flying.Robot.2010.BDRip.XVID.AC3.HQ.Hive-CM8.avi
Format                           : AVI
Format/Info                      : Audio Video Interleave
File size                        : 1.32 GiB
Duration                         : 1h 23mn
Overall bit rate                 : 2 257 Kbps
Writing application              : Nandub v1.0rc2
Writing library                  : Nandub build 1853/release

Video
ID                               : 0
Format                           : MPEG-4 Visual
Format profile                   : Advanced Simple@L5
Format settings, BVOP            : Yes
Format settings, QPel            : Yes
Format settings, GMC             : No warppoints
Format settings, Matrix          : Default (H.263)
Muxing mode                      : Packed bitstream
Codec ID                         : XVID
Codec ID/Hint                    : XviD
Duration                         : 1h 23mn
Bit rate                         : 1 799 Kbps
Width                            : 720 pixels
Height                           : 320 pixels
Display aspect ratio             : 2.2:1
Frame rate                       : 23.976 fps
Color space                      : YUV
Chroma subsampling               : 4:2:0
Bit depth                        : 8 bits
Scan type                        : Progressive
Bits/(Pixel*Frame)               : 0.326
Stream size                      : 1.05 GiB (80%)
Writing library                  : XviD 1.2.1 (UTC 2008-12-04)

Audio
ID                               : 1
Format                           : AC-3
Format/Info                      : Audio Coding 3
Mode extension                   : CM (complete main)
Codec ID                         : 2000
Duration                         : 1h 23mn
Bit rate mode                    : Constant
Bit rate                         : 448 Kbps
Channel(s)                       : 6 channels
Channel positions                : Front: L C R, Side: L R, LFE
Sampling rate                    : 48.0 KHz
Bit depth                        : 16 bits
Stream size                      : 268 MiB (20%)
Alignment                        : Split accross interleaves
Interleave, duration             : 42 ms (1.00 video frame)
Interleave, preload duration     : 500 ms



Billy Boyd	 ... 	Jack
Dominic Gould	... 	Henry
Patrick Bauchau	... 	Richard
Gerard Depardieu ... 	TV reporter
Smadi Wolfman	... 	Lana


Henry (Dominic Gould) and Jack (Billy Boyd) are rival concert pianists who battle 
for the affection of beautiful Lana (Smadi Wolfman). Jacks career ends after he injures his hand, 
but when he learns that his domestic robot, GLENN, can play piano, Jack sees an opportunity to 
get even with Henry. GLENN, however, is programmed to be capable of expressing emotions, 
and has quietly devised its own dangerous machinations in this sci-fi drama.


[img]http://img853.imageshack.us/img853/1551/ggll.png[/img]
[img]http://img153.imageshack.us/img153/7104/60471743.png[/img]
[img]http://img6.imageshack.us/img6/3118/gglgglll.png[/img]
[img]http://img690.imageshack.us/img690/1481/gglglglglgll.png[/img]
[img]http://img706.imageshack.us/img706/954/gglglglgll.png[/img]
[img]http://img97.imageshack.us/img97/746/gglglgll.png[/img]
[img]http://img685.imageshack.us/img685/6871/gglgll.png[/img]





Greetz

ViSiON,LUSi,SANTi,MAGNET,THC,T0XiCiNK,LKRG,IMAGiNE,WBZ,FLAWL3SS,NOVA
Vik,OneTwo,Rapeseed,D2U,SAFC,goldadvance,MEMORY100,KaN1vE,Unevano,Pinnz,Wayne,Mr Hive
and all P2P groups 
Great Work Guys :D

CM8@hushmail.com